# xmcd
#
# Track frame offsets:
#	150
#	17200
#	30172
#	42120
#	53425
#	75365
#	87070
#	99577
#	114960
#	125357
#	141290
#	157095
#	164427
#	179397
#
# Disc length: 2635 seconds
#
# Revision: 0
# Processed by: cddbd v1.5.1PL0 Copyright (c) Steve Scherf et al.
# Submitted via: dBpowerAMP V4.0
#
DISCID=9f0a490e
DTITLE=Various Artist - Eu sei Que Vou Te Amar
DYEAR=1900
DGENRE=Easy Listening
TTITLE0=Zimbo Trio/Garota de Ipanema
TTITLE1=Jair Rodrigues/Carinhoso
TTITLE2=Pery Ribeiro/O Barquinho
TTITLE3=Trio Caiowas/Ronda
TTITLE4=Zimbo Trio/Samba de Uma Nota Só
TTITLE5=Tom da Terra/Chiclete com Banana
TTITLE6=Sambrasil/Ai, Que Saudade da Amélia
TTITLE7=Catavento/Trem das Onze
TTITLE8=Jair Rodrigues/Eu Sei Que Vou Te Amar
TTITLE9=Trio Nordestino/Súplica Cearense
TTITLE10=Pery Ribeiro/As Rosas Não Falam
TTITLE11=Claudia e Zimbo Trio/Tico-Tico no Fubá
TTITLE12=Wilson Simonal/Asa Branca
TTITLE13=Tom da Terra/Aquarela do Brasil
EXTD=
EXTT0=
EXTT1=
EXTT2=
EXTT3=
EXTT4=
EXTT5=
EXTT6=
EXTT7=
EXTT8=
EXTT9=
EXTT10=
EXTT11=
EXTT12=
EXTT13=
PLAYORDER=
